name D:\school\WTK\thesis\model\3dpredictsim\Results\Batchsim_tmt_linear_v2\Pog_s1_tmt_bCst_d05_k800_ig24_pas.mot
datacolumns 128
datarows 4
range 0.54123433 0.57370839
endheader
time	pelvis_tilt	pelvis_list	pelvis_rotation	pelvis_tx	pelvis_ty	pelvis_tz	hip_flexion_l	hip_adduction_l	hip_rotation_l	hip_flexion_r	hip_adduction_r	hip_rotation_r	knee_angle_l	knee_angle_r	ankle_angle_l	ankle_angle_r	subtalar_angle_l	subtalar_angle_r	tmt_angle_l	tmt_angle_r	mtp_angle_l	mtp_angle_r	lumbar_extension	lumbar_bending	lumbar_rotation	arm_flex_l	arm_add_l	arm_rot_l	arm_flex_r	arm_add_r	arm_rot_r	elbow_flex_l	elbow_flex_r	pro_sup_l	pro_sup_r	glut_med1_l/activation	glut_med2_l/activation	glut_med3_l/activation	glut_min1_l/activation	glut_min2_l/activation	glut_min3_l/activation	semimem_l/activation	semiten_l/activation	bifemlh_l/activation	bifemsh_l/activation	sar_l/activation	add_long_l/activation	add_brev_l/activation	add_mag1_l/activation	add_mag2_l/activation	add_mag3_l/activation	tfl_l/activation	pect_l/activation	grac_l/activation	glut_max1_l/activation	glut_max2_l/activation	glut_max3_l/activation	iliacus_l/activation	psoas_l/activation	quad_fem_l/activation	gem_l/activation	peri_l/activation	rect_fem_l/activation	vas_med_l/activation	vas_int_l/activation	vas_lat_l/activation	med_gas_l/activation	lat_gas_l/activation	soleus_l/activation	tib_post_l/activation	flex_dig_l/activation	flex_hal_l/activation	tib_ant_l/activation	per_brev_l/activation	per_long_l/activation	per_tert_l/activation	ext_dig_l/activation	ext_hal_l/activation	ercspn_l/activation	intobl_l/activation	extobl_l/activation	glut_med1_r/activation	glut_med2_r/activation	glut_med3_r/activation	glut_min1_r/activation	glut_min2_r/activation	glut_min3_r/activation	semimem_r/activation	semiten_r/activation	bifemlh_r/activation	bifemsh_r/activation	sar_r/activation	add_long_r/activation	add_brev_r/activation	add_mag1_r/activation	add_mag2_r/activation	add_mag3_r/activation	tfl_r/activation	pect_r/activation	grac_r/activation	glut_max1_r/activation	glut_max2_r/activation	glut_max3_r/activation	iliacus_r/activation	psoas_r/activation	quad_fem_r/activation	gem_r/activation	peri_r/activation	rect_fem_r/activation	vas_med_r/activation	vas_int_r/activation	vas_lat_r/activation	med_gas_r/activation	lat_gas_r/activation	soleus_r/activation	tib_post_r/activation	flex_dig_r/activation	flex_hal_r/activation	tib_ant_r/activation	per_brev_r/activation	per_long_r/activation	per_tert_r/activation	ext_dig_r/activation	ext_hal_r/activation	ercspn_r/activation	intobl_r/activation	extobl_r/activation	
          0.54123433	         -2.90855316	         -0.97689960	         -5.05058122	          0.67654291	          0.87160860	          0.00240569	         26.10728164	         -0.23499508	         -2.54339821	        -17.95586286	          1.33165544	          6.48473648	         -7.25225961	         -6.67947525	          5.46027036	        -10.43856487	          2.91689493	          7.52025018	          0.04052936	          1.31643464	         -0.09836092	         28.36060142	          0.57881934	          3.06026153	          1.66611711	         -9.53897608	        -13.44982482	         12.22025924	          3.49358059	        -13.48976712	         12.22951389	         17.15017016	         27.40567536	         86.51662706	         86.51662706	          0.13990384	          0.05000060	          0.12475556	          0.05000059	          0.05000085	          0.05000322	          0.05902064	          0.05902064	          0.10314439	          0.05000033	          0.05000307	          0.07372002	          0.11459331	          0.07315118	          0.18440287	          0.16128611	          0.05000048	          0.05002311	          0.05296445	          0.05411562	          0.13623175	          0.17064814	          0.05000036	          0.05000023	          0.14803603	          0.05000103	          0.05002214	          0.05065979	          0.12721910	          0.14155328	          0.10127995	          0.05768584	          0.05000213	          0.05902055	          0.05000008	          0.05902050	          0.05902051	          0.53407949	          0.31958080	          0.18287740	          0.38375408	          0.52597700	          0.33712837	          0.05000008	          0.12748651	          0.12732898	          0.25665744	          0.08223781	          0.06857611	          0.24008957	          0.14336845	          0.08223813	          0.05000079	          0.05000015	          0.05000014	          0.05000016	          0.08562776	          0.12369980	          0.05061743	          0.05000424	          0.05000268	          0.05000072	          0.20856356	          0.09732692	          0.05000396	          0.05000280	          0.05000170	          0.05000163	          0.32592426	          0.61374855	          0.05663647	          0.05000233	          0.05000075	          0.25692105	          0.10562800	          0.15965352	          0.05001308	          0.17066104	          0.24835639	          0.20656810	          0.19484616	          0.18500302	          0.24657174	          0.05000001	          0.07960484	          0.15517276	          0.05000009	          0.05000003	          0.05000010	          0.05000001	          0.05000007	          0.05000005	
          0.55205902	         -2.88643756	         -1.01938996	         -5.19333354	          0.69371234	          0.87016460	          0.00225556	         25.59342736	         -0.06832040	         -2.31279271	        -17.69848353	          1.18780728	          6.24793083	         -7.36942834	         -8.94539836	          4.85451785	        -11.14763695	          2.43531514	          8.68413279	          0.06432663	          1.17943247	         -0.08677191	         28.99195303	          0.81090747	          2.86309084	          1.72156826	        -10.74566723	        -13.45243740	         12.04293809	          3.21986954	        -13.52599415	         12.51271422	         17.16509026	         28.28379459	         86.51662706	         86.51662706	          0.11852138	          0.06577175	          0.19400879	          0.05000723	          0.05000220	          0.05000069	          0.05000008	          0.05000017	          0.08738007	          0.05000006	          0.05000019	          0.06245453	          0.09707971	          0.24750907	          0.25116230	          0.16865924	          0.05000033	          0.05000121	          0.05000038	          0.05902098	          0.17127997	          0.20335484	          0.05000006	          0.05000011	          0.18847182	          0.06966968	          0.11102967	          0.06966861	          0.25552440	          0.27554851	          0.20828869	          0.05000000	          0.05000000	          0.05000000	          0.05000001	          0.05000017	          0.05000009	          0.62895923	          0.32443344	          0.18036312	          0.59098147	          0.57528188	          0.35258134	          0.05000001	          0.10800176	          0.10786831	          0.21743054	          0.06966878	          0.05809521	          0.20339491	          0.12145638	          0.06966908	          0.05000116	          0.05000011	          0.05000012	          0.05000010	          0.07254076	          0.18301557	          0.19833452	          0.11074742	          0.05000675	          0.05000104	          0.17668723	          0.09712384	          0.05000114	          0.05000191	          0.05000121	          0.05000138	          0.27611075	          0.52369097	          0.05197861	          0.05902088	          0.05902054	          0.21765383	          0.13525880	          0.13525996	          0.13199813	          0.14457759	          0.21039817	          0.17499670	          0.16506635	          0.15672774	          0.20888637	          0.05000001	          0.06743833	          0.13640764	          0.05000010	          0.05000006	          0.05000011	          0.05918981	          0.06966863	          0.05518087	
          0.56288370	         -2.85784285	         -1.04345370	         -5.31187120	          0.71107182	          0.86857091	          0.00211687	         24.99113921	          0.06931541	         -2.03396035	        -17.34162800	          1.03697960	          6.00622262	         -8.10530036	        -11.39592463	          4.14837531	        -11.79150020	          1.93748467	          9.82169439	         -0.04329542	          0.98650433	         -0.13110447	         29.08873448	          1.05523990	          2.63448287	          1.76676524	        -11.94462149	        -13.46679366	         11.93587497	          2.89238833	        -13.56694479	         12.75853599	         17.16578943	         29.15357402	         86.51662706	         86.51662706	          0.27730491	          0.22801399	          0.32371219	          0.05000027	          0.05000029	          0.05000045	          0.07261706	          0.05000026	          0.09117955	          0.05000013	          0.05000131	          0.06966850	          0.08224246	          0.20968044	          0.21277575	          0.17957480	          0.05000038	          0.06966531	          0.05000549	          0.05000047	          0.18316977	          0.18909689	          0.05000083	          0.05000032	          0.15966626	          0.05902169	          0.13546731	          0.05902062	          0.21647066	          0.23343433	          0.17645434	          0.05902063	          0.05902069	          0.05902058	          0.05000067	          0.05902062	          0.05902060	          0.53283053	          0.33733135	          0.17494729	          0.50065723	          0.55614370	          0.29869365	          0.05000002	          0.09149502	          0.09138196	          0.20673113	          0.05902078	          0.05000020	          0.17230862	          0.10289329	          0.05902105	          0.05000117	          0.05000020	          0.05000033	          0.05000005	          0.06145397	          0.18408698	          0.37598666	          0.10979455	          0.05902308	          0.10228316	          0.14968280	          0.08228066	          0.05000092	          0.05001183	          0.05002477	          0.05901929	          0.23391062	          0.46801037	          0.05706627	          0.05000095	          0.05000009	          0.18438811	          0.11458620	          0.11458719	          0.11182388	          0.12248068	          0.17824140	          0.14825060	          0.13983800	          0.13277392	          0.17696071	          0.05000488	          0.05713169	          0.14170171	          0.05000021	          0.16368241	          0.05000148	          0.05939103	          0.05902065	          0.05902057	
          0.57370839	         -2.82615698	         -1.05249338	         -5.40325119	          0.72839301	          0.86683696	          0.00197828	         24.28845042	          0.20324811	         -1.73435729	        -16.87712495	          0.88851946	          5.76161088	         -8.92147214	        -14.01647128	          3.69197477	        -12.26202996	          1.40064758	         10.88810880	         -0.01111124	          0.74290065	         -0.16680684	         28.38335425	          1.29081778	          2.38071461	          1.80177496	        -13.08790286	        -13.49272469	         11.92139660	          2.55066096	        -13.61346704	         12.98683719	         17.12566018	         29.99614642	         86.51662706	         86.51662706	          0.33554906	          0.35971242	          0.45599704	          0.22137591	          0.19606136	          0.32987999	          0.06237755	          0.08626922	          0.07724403	          0.06966873	          0.05000073	          0.05902061	          0.06967275	          0.17763344	          0.18051096	          0.19132878	          0.05000017	          0.05901842	          0.07040289	          0.24134145	          0.22931726	          0.21475754	          0.05000015	          0.05000012	          0.13526329	          0.05000139	          0.26256512	          0.05000006	          0.18338581	          0.19775680	          0.14948549	          0.05000006	          0.05000012	          0.05000001	          0.05000000	          0.05000011	          0.05000008	          0.67925835	          0.28577443	          0.14820877	          0.69823342	          0.62847764	          0.45463732	          0.05030227	          0.07751113	          0.07741535	          0.17513488	          0.05000020	          0.05000001	          0.14597470	          0.08716735	          0.05000046	          0.05001027	          0.05000036	          0.05000027	          0.05000034	          0.05902031	          0.19566755	          0.31852305	          0.09301417	          0.05000306	          0.08665071	          0.12680569	          0.06970626	          0.05000077	          0.05000038	          0.05000024	          0.05000024	          0.19816027	          0.41587250	          0.05000003	          0.05000017	          0.05000009	          0.15620665	          0.09707313	          0.09707396	          0.09473299	          0.10376101	          0.15099940	          0.12559232	          0.11846554	          0.11248118	          0.14991457	          0.07842874	          0.08418730	          0.12004439	          0.09707859	          0.21895347	          0.07876767	          0.09151200	          0.05000007	          0.05000004	
